<svg xmlns="http://www.w3.org/2000/svg"><symbol id="marwan" viewBox="0 0 2237.5 1381"><path fill="none" d="M1325.7 340.3q-17.7 3.4-37.1 5.7t-38.8 5.7a292.3 292.3 0 0 0-36 9.1 106.3 106.3 0 0 0-30.8 15.4 73.2 73.2 0 0 0-21.1 24.6q-8 14.9-8 37.7t8 36.5a61.1 61.1 0 0 0 21.7 23.4 91.6 91.6 0 0 0 32 12 204.1 204.1 0 0 0 37.7 3.4q48 0 74.2-16t38.8-38.3q12.6-22.3 15.4-45.1t2.9-36.5v-60.5q-10.3 9.2-25.7 14.3a263.3 263.3 0 0 1-33.2 8.6zm0 759.8q-17.7 3.4-37.1 5.7t-38.8 5.7a292.3 292.3 0 0 0-36 9.1 106.3 106.3 0 0 0-30.8 15.4 73.1 73.1 0 0 0-21.1 24.6q-8 14.9-8 37.7t8 36.5a61.1 61.1 0 0 0 21.7 23.4 91.6 91.6 0 0 0 32 12 204.1 204.1 0 0 0 37.7 3.4q48 0 74.2-16t38.8-38.3q12.6-22.3 15.4-45.1t2.9-36.5v-60.5q-10.3 9.2-25.7 14.3a263.4 263.4 0 0 1-33.2 8.6z"/><path fill="#ccc" d="M451 1329.8a129.3 129.3 0 0 0 13.1 7.2q46.2 21.7 102.2 21.7c21.7 0 33.1 2.5 60.8 2.3 25.3 1.2 119.2-6.1 145.9-13.8 4.6-1.3 9-3 13.4-4.6 20.9-7.6 39.4-18.1 55.1-32q28.5-25.1 44.5-65.7c10.7-27 15.4-60.1 16-97.6V752.4H739.9V1087c0 5.8-.2 11.2-.3 16.8-.3 13.5-.9 26.7-1.9 39.1q-2.3 26.3-12.6 45.7a76.2 76.2 0 0 1-30.3 30.8q-20 11.4-54.2 11.4l-5.2-.3-5.1.3q-38.8 0-58.8-13.1a73.1 73.1 0 0 1-28.5-34.8 146 146 0 0 1-9.7-47.4q-1.1-25.7-1.2-52V752.4H370v331.1q0 26.3-1.2 52a146 146 0 0 1-9.7 47.4 73.1 73.1 0 0 1-28.5 34.8q-20 13.1-58.8 13.1l-5.1-.3-5.2.3q-34.3 0-54.2-11.4a76.2 76.2 0 0 1-30.3-30.8q-10.3-19.4-12.6-45.7c-1.1-12.4-1.6-25.6-1.9-39.1-.1-5.6-.3-11-.3-16.8V752.4H0v395.1q0 57.1 16 97.6t44.5 65.7c15.7 13.8 34.2 24.4 55.1 32 4.4 1.6 8.8 3.2 13.4 4.6q40 11.4 86.8 11.4a212.8 212.8 0 0 0 59.1-7.9 173.3 173.3 0 0 0 47.7-21.8q45.1-29.7 71.4-68.5 20.4 46.6 57 69.2zM0 16v590.3h162.1V263.8q0-43.4 12.6-70.2t30.3-41.2q17.7-14.3 36.5-19.4t30.3-5.1q38.8 0 58.8 13.1a73 73 0 0 1 28.5 34.8 146 146 0 0 1 9.7 47.4q1.1 25.7 1.2 51.9v331.2h162.1V277.5a366 366 0 0 1 4-54.2q4-26.8 16-48a95.1 95.1 0 0 1 33.1-34.3q21.1-13.1 55.4-13.1t54.2 11.4a76.2 76.2 0 0 1 30.3 30.8q10.3 19.4 12.6 45.7t2.3 56v334.5h162.1v-395q0-57.1-16-97.6T841.6 48Q813 22.9 773.1 11.4T686.3 0q-61.7 0-106.8 29.7t-71.3 68.5q-24-54.8-70.2-76.5T335.7 0q-58.2 0-103.3 25.1t-77.1 70.8H153V16zm1546.7 459V167.9q0-53.7-24-86.2T1461 30.9q-37.7-18.3-83.4-24.6a663.6 663.6 0 0 0-90.1-6.3 496.6 496.6 0 0 0-97.6 9.7q-48.5 9.7-87.4 32.5a194.3 194.3 0 0 0-63.9 60.5q-25.1 37.7-28.5 94.8h162.2q4.5-48 32-68.5t75.4-20.5a271.9 271.9 0 0 1 40.5 2.9q18.8 2.9 33.1 11.4a63.1 63.1 0 0 1 22.8 24q8.6 15.4 8.6 41.7t-14.8 38.2q-16 13.1-43.4 20t-62.8 10.3q-35.4 3.4-71.9 9.1a688.2 688.2 0 0 0-72.5 15.4q-36 9.7-63.9 29.1t-45.7 52Q992 395.1 992 445.4q0 45.7 15.4 78.8t42.8 54.8q27.4 21.7 63.9 32t78.8 10.3a367.2 367.2 0 0 0 107.3-16 211.4 211.4 0 0 0 91.4-56 238.3 238.3 0 0 0 4 29.1 227.7 227.7 0 0 0 7.4 28h164.4q-11.4-18.3-16-54.8a613.5 613.5 0 0 1-4.7-76.6zm-162.1-97q0 13.7-2.9 36.5t-15.4 45.1q-12.6 22.3-38.8 38.3t-74.2 16a204.1 204.1 0 0 1-37.7-3.4 91.6 91.6 0 0 1-32-12 61.1 61.1 0 0 1-21.7-23.4q-8-14.8-8-36.5t8-37.7a73.2 73.2 0 0 1 21.1-24.6 106.3 106.3 0 0 1 30.8-15.4 292.3 292.3 0 0 1 36-9.1q19.4-3.4 38.8-5.7t37.1-5.7a263.3 263.3 0 0 0 33.1-8.6q15.4-5.1 25.7-14.3zm162.1 856.9V927.7q0-53.7-24-86.2t-61.7-50.8q-37.7-18.3-83.4-24.6a663.6 663.6 0 0 0-90.2-6.3 496.6 496.6 0 0 0-97.6 9.7q-48.5 9.7-87.4 32.5a194.3 194.3 0 0 0-63.9 60.5q-25.1 37.7-28.5 94.8h162.2q4.5-48 32-68.5t75.4-20.5a271.9 271.9 0 0 1 40.5 2.9q18.8 2.9 33.1 11.4a63.1 63.1 0 0 1 22.8 24q8.6 15.4 8.6 41.7t-14.8 38.2q-16 13.1-43.4 20t-62.8 10.3q-35.4 3.4-71.9 9.1a688.2 688.2 0 0 0-72.5 15.4q-36 9.7-63.9 29.1t-45.7 52q-17.7 32.5-17.7 82.8 0 45.7 15.4 78.8t42.8 54.8q27.4 21.7 63.9 32t78.8 10.3a367.2 367.2 0 0 0 107.3-16 211.4 211.4 0 0 0 91.4-56 238.3 238.3 0 0 0 4 29.1 227.7 227.7 0 0 0 7.4 28h164.4q-11.4-18.3-16-54.8a613.5 613.5 0 0 1-4.6-76.5zm-162.1-97.1q0 13.7-2.9 36.5t-15.4 45.1q-12.6 22.3-38.8 38.3t-74.2 16a204.1 204.1 0 0 1-37.7-3.4 91.6 91.6 0 0 1-32-12 61.1 61.1 0 0 1-21.7-23.4q-8-14.8-8-36.5t8-37.7a73.1 73.1 0 0 1 21.1-24.6 106.3 106.3 0 0 1 30.8-15.4 292.3 292.3 0 0 1 36-9.1q19.4-3.4 38.8-5.7t37.1-5.7a263.4 263.4 0 0 0 33.1-8.6q15.4-5.1 25.7-14.3zm416.1-531.5h45.2v-266q0-39.9 8-74.2t26.8-59.9q18.8-25.7 49.7-40.5t75.4-14.8a290.5 290.5 0 0 1 30.8 1.7q16 1.7 27.4 4V5.7Q2044.5 0 2028.5 0a193.8 193.8 0 0 0-59.4 9.1 218.5 218.5 0 0 0-53.7 25.7 202 202 0 0 0-44.5 40 198.7 198.7 0 0 0-30.8 50.8h-2.3V16h-154.1v590.3h117zm427.1 290.6q-9.7-45.1-33.7-76.5t-65.7-49.1q-41.7-17.7-106.8-17.7-51.4 0-100.5 23.4t-79.9 74.8h-3.4v-82.2h-154.1V1360h162.2v-309.5q0-90.2 29.7-129.6t95.9-39.4q58.2 0 81.1 36t22.8 109v333.4h162.1V996.8q0-54.8-9.7-99.9z"/></symbol></svg>